<svg xmlns="http://www.w3.org/2000/svg" xmlns:xlink="http://www.w3.org/1999/xlink" width="500" zoomAndPan="magnify" viewBox="0 0 375 374.999991" height="500" preserveAspectRatio="xMidYMid meet" version="1.0"><defs><g/><clipPath id="8b315e2f40"><path d="M 37.5 183.21875 L 132 183.21875 L 132 245.46875 L 37.5 245.46875 Z M 37.5 183.21875 " clip-rule="nonzero"/></clipPath></defs><g clip-path="url(#8b315e2f40)"><path fill="#1d1d1b" d="M 131.269531 205.074219 C 131.027344 202.175781 128.871094 199.15625 127.46875 196.714844 C 125.53125 193.351562 123.589844 189.964844 121.402344 186.757812 C 120.742188 185.796875 119.980469 183.472656 118.675781 183.269531 C 118.359375 183.222656 117.878906 183.386719 117.429688 183.589844 C 117.335938 183.589844 117.242188 183.609375 117.140625 183.667969 C 116.828125 183.851562 116.507812 184.019531 116.195312 184.195312 C 115.328125 184.636719 114.457031 185.117188 113.597656 185.613281 C 108.589844 188.25 103.414062 190.53125 98.414062 193.195312 C 95.433594 194.785156 92.496094 196.460938 89.605469 198.210938 C 87.027344 199.769531 84.128906 201.140625 81.867188 203.167969 C 81.863281 203.160156 81.859375 203.152344 81.851562 203.144531 C 81.710938 202.902344 81.507812 202.820312 81.304688 202.824219 C 81.292969 202.824219 81.289062 202.820312 81.277344 202.820312 C 79.472656 202.636719 77.632812 202.558594 75.773438 202.535156 C 75.996094 201.957031 76.128906 201.296875 76.222656 200.632812 C 77.585938 201.179688 79.445312 200.894531 80.613281 200.3125 C 81.984375 199.632812 84.003906 197.5625 82.917969 195.886719 C 82.8125 195.730469 82.625 195.585938 82.425781 195.605469 C 81.605469 195.6875 80.835938 196.285156 80.066406 196.558594 C 78.839844 196.992188 77.496094 197.074219 76.203125 196.917969 C 76.03125 196.394531 75.753906 195.914062 75.347656 195.558594 C 73.359375 193.828125 71.578125 196.410156 71.195312 198.152344 C 71.1875 198.199219 71.1875 198.246094 71.1875 198.292969 C 69.519531 197.953125 67.613281 198.394531 65.90625 198.203125 C 65.964844 197.046875 66.007812 195.894531 65.996094 194.738281 C 65.984375 193.570312 66.378906 191.242188 65.5625 190.300781 C 64.859375 189.488281 63.496094 189.578125 62.53125 189.480469 C 59.933594 189.210938 57.527344 189.535156 54.953125 189.648438 C 52.96875 189.730469 49.289062 189.125 48.480469 191.472656 C 48.371094 191.796875 48.308594 192.164062 48.269531 192.550781 C 47.085938 192.261719 45.628906 192.386719 44.640625 192.769531 C 42.976562 193.414062 42.117188 194.972656 41.9375 196.6875 C 41.765625 198.367188 42.074219 200.15625 43.507812 201.195312 C 44.886719 202.195312 47.011719 202.363281 48.632812 201.71875 C 48.664062 202.074219 48.699219 202.4375 48.746094 202.792969 C 47.023438 202.820312 45.3125 202.882812 43.601562 203 C 42.710938 202.980469 39.71875 202.65625 39.054688 203.144531 C 37.609375 204.195312 38.292969 208.132812 38.273438 209.679688 C 38.171875 218.71875 37.5 228 38.164062 237.011719 C 38.351562 239.582031 38.449219 242.34375 40.820312 243.882812 C 43.238281 245.449219 46.6875 245.246094 49.425781 245.304688 C 57.34375 245.464844 65.25 245.078125 73.148438 244.585938 C 74.847656 244.597656 76.546875 244.566406 78.25 244.425781 C 81.507812 244.160156 81.691406 242.3125 81.800781 239.464844 C 82.21875 228.480469 82.605469 217.320312 81.957031 206.3125 C 85.242188 212.664062 89.320312 218.636719 93.121094 224.65625 C 94.664062 227.105469 95.707031 228.507812 98.691406 227.152344 C 100.53125 226.308594 102.304688 225.328125 104.042969 224.285156 C 109.246094 221.660156 114.414062 218.964844 119.476562 216.058594 C 123.214844 213.90625 131.722656 210.558594 131.269531 205.074219 Z M 79.273438 197.910156 C 79.449219 197.886719 82.238281 196.953125 82.15625 196.867188 C 82.515625 197.253906 80.824219 198.742188 80.53125 198.925781 C 79.984375 199.265625 79.371094 199.460938 78.742188 199.574219 C 77.878906 199.730469 77.132812 199.570312 76.355469 199.421875 C 76.375 199.152344 76.394531 198.878906 76.410156 198.628906 C 76.433594 198.304688 76.417969 197.964844 76.363281 197.625 C 77.316406 197.941406 78.230469 198.0625 79.273438 197.910156 Z M 68.714844 199.339844 C 69.8125 199.28125 71.023438 199.359375 72.03125 198.882812 C 72.105469 198.847656 72.125 198.789062 72.121094 198.726562 C 72.203125 198.648438 72.273438 198.550781 72.296875 198.445312 C 72.46875 197.785156 72.691406 196.777344 73.382812 196.457031 C 74.390625 196.441406 74.960938 196.804688 75.089844 197.550781 C 75.207031 198.015625 75.207031 198.492188 75.089844 198.964844 C 74.941406 200.128906 74.515625 201.347656 74.625 202.527344 C 71.644531 202.527344 68.632812 202.652344 65.65625 202.75 C 65.714844 201.625 65.78125 200.507812 65.84375 199.382812 C 66.800781 199.453125 67.75 199.390625 68.714844 199.339844 Z M 48.46875 197.089844 C 48.484375 197.617188 48.488281 198.152344 48.5 198.6875 C 47.335938 198.464844 45.65625 198.878906 45.53125 197.4375 C 45.460938 196.652344 46.191406 195.914062 46.835938 195.59375 C 47.332031 195.347656 47.832031 195.375 48.34375 195.308594 C 48.402344 195.945312 48.457031 196.558594 48.46875 197.089844 Z M 44.171875 200.511719 C 42.738281 199.542969 42.601562 197.378906 43.066406 195.851562 C 43.878906 193.167969 46.109375 193.453125 48.238281 193.351562 C 48.238281 193.742188 48.253906 194.140625 48.285156 194.542969 C 47.675781 194.316406 46.890625 194.480469 46.324219 194.714844 C 45.351562 195.113281 44.589844 195.949219 44.386719 196.996094 C 44.15625 198.195312 44.910156 199.125 45.972656 199.558594 C 46.542969 199.796875 47.144531 199.835938 47.753906 199.875 C 48.015625 199.890625 48.277344 199.921875 48.53125 199.914062 C 48.542969 200.21875 48.554688 200.515625 48.570312 200.820312 C 47.058594 200.960938 45.601562 201.472656 44.171875 200.511719 Z M 49.71875 195.992188 C 49.722656 195.078125 49.339844 192.726562 49.804688 191.960938 C 50.574219 190.675781 54.273438 191.136719 55.476562 191.082031 C 57.027344 191.007812 58.539062 190.761719 60.097656 190.8125 C 61.011719 190.84375 62.179688 190.824219 63.046875 191.089844 C 64.488281 191.53125 64.261719 191.40625 64.398438 192.890625 C 64.695312 196.164062 64.363281 199.507812 64.226562 202.792969 C 63.074219 202.824219 61.917969 202.851562 60.78125 202.855469 C 57.066406 202.867188 53.296875 202.753906 49.539062 202.78125 C 49.8125 200.542969 49.703125 198.246094 49.71875 195.992188 Z M 80.535156 239.472656 C 80.144531 241.445312 79.464844 242.347656 78.472656 242.777344 C 71.613281 243.070312 64.75 243.445312 57.882812 243.597656 C 54.140625 243.675781 50.34375 243.78125 46.601562 243.546875 C 45.453125 243.472656 44.28125 243.441406 43.175781 243.089844 C 40.027344 242.09375 39.886719 238.492188 39.738281 235.671875 C 39.390625 228.992188 39.730469 222.246094 39.667969 215.5625 C 39.640625 212.75 38.96875 209.175781 39.546875 206.460938 C 39.960938 204.539062 40.628906 204.148438 41.964844 204.042969 C 54.6875 205.371094 67.722656 203.640625 80.464844 204.089844 C 80.484375 213.804688 80.921875 223.515625 80.761719 233.230469 C 80.726562 235.214844 80.921875 237.511719 80.535156 239.472656 Z M 128.324219 208.300781 C 126.542969 210.277344 123.789062 211.566406 121.546875 212.898438 C 119.03125 214.394531 116.476562 215.832031 113.910156 217.234375 C 108.546875 220.152344 103.113281 222.941406 97.71875 225.804688 C 96.695312 225.949219 95.667969 225.667969 94.535156 224.515625 C 93.070312 223.03125 91.964844 220.515625 90.898438 218.726562 C 87.945312 213.757812 85.121094 208.714844 82.195312 203.730469 C 88.070312 200.585938 93.71875 197.046875 99.613281 193.929688 C 105.625 190.757812 111.878906 188.121094 117.75 184.699219 C 117.839844 184.644531 117.910156 184.578125 117.957031 184.503906 C 118.050781 184.5 118.136719 184.496094 118.214844 184.515625 C 119.855469 184.996094 121.246094 188.855469 122.007812 190.164062 C 124.277344 194.078125 132 204.214844 128.324219 208.300781 Z M 128.324219 208.300781 " fill-opacity="1" fill-rule="nonzero"/></g><path fill="#1d1d1b" d="M 51.976562 195.355469 C 52.046875 195.453125 52.125 195.542969 52.210938 195.621094 C 52.945312 196.238281 53.988281 195.515625 53.988281 194.65625 C 53.988281 193.804688 53.007812 193.324219 52.285156 193.710938 C 52.222656 193.746094 52.164062 193.796875 52.113281 193.847656 C 52.109375 193.84375 52.109375 193.84375 52.109375 193.835938 C 52.097656 193.832031 52.085938 193.828125 52.078125 193.832031 C 51.832031 193.988281 51.765625 194.332031 51.753906 194.609375 C 51.753906 194.632812 51.757812 194.652344 51.757812 194.675781 C 51.742188 194.941406 51.816406 195.179688 51.976562 195.355469 Z M 51.976562 195.355469 " fill-opacity="1" fill-rule="nonzero"/><path fill="#1d1d1b" d="M 61.082031 195.355469 C 61.152344 195.453125 61.230469 195.542969 61.316406 195.621094 C 62.050781 196.238281 63.09375 195.515625 63.09375 194.65625 C 63.09375 193.804688 62.113281 193.324219 61.390625 193.710938 C 61.328125 193.746094 61.269531 193.796875 61.21875 193.847656 C 61.214844 193.84375 61.214844 193.84375 61.214844 193.835938 C 61.203125 193.832031 61.191406 193.828125 61.183594 193.832031 C 60.9375 193.988281 60.871094 194.332031 60.859375 194.609375 C 60.859375 194.632812 60.863281 194.652344 60.863281 194.675781 C 60.851562 194.941406 60.925781 195.179688 61.082031 195.355469 Z M 61.082031 195.355469 " fill-opacity="1" fill-rule="nonzero"/><path fill="#1d1d1b" d="M 51.976562 200.945312 C 52.046875 201.046875 52.125 201.132812 52.210938 201.210938 C 52.945312 201.828125 53.988281 201.109375 53.988281 200.25 C 53.988281 199.398438 53.007812 198.917969 52.285156 199.304688 C 52.222656 199.339844 52.164062 199.386719 52.113281 199.4375 C 52.109375 199.433594 52.109375 199.433594 52.109375 199.429688 C 52.097656 199.421875 52.085938 199.417969 52.078125 199.421875 C 51.832031 199.582031 51.765625 199.925781 51.753906 200.203125 C 51.753906 200.222656 51.757812 200.246094 51.757812 200.265625 C 51.742188 200.527344 51.816406 200.773438 51.976562 200.945312 Z M 51.976562 200.945312 " fill-opacity="1" fill-rule="nonzero"/><path fill="#1d1d1b" d="M 61.082031 200.945312 C 61.152344 201.046875 61.230469 201.132812 61.316406 201.210938 C 62.050781 201.828125 63.09375 201.109375 63.09375 200.25 C 63.09375 199.398438 62.113281 198.917969 61.390625 199.304688 C 61.328125 199.339844 61.269531 199.386719 61.21875 199.4375 C 61.214844 199.433594 61.214844 199.433594 61.214844 199.429688 C 61.203125 199.421875 61.191406 199.417969 61.183594 199.421875 C 60.9375 199.582031 60.871094 199.925781 60.859375 200.203125 C 60.859375 200.222656 60.863281 200.246094 60.863281 200.265625 C 60.851562 200.527344 60.925781 200.773438 61.082031 200.945312 Z M 61.082031 200.945312 " fill-opacity="1" fill-rule="nonzero"/><g fill="#ffffff" fill-opacity="0.4"><g transform="translate(164.876478, 222.268046)"><g><path d="M 7.140625 -7.265625 C 6.253906 -7.566406 5.453125 -7.875 4.734375 -8.1875 C 4.015625 -8.5 3.390625 -8.875 2.859375 -9.3125 C 2.335938 -9.757812 1.929688 -10.289062 1.640625 -10.90625 C 1.347656 -11.519531 1.203125 -12.265625 1.203125 -13.140625 C 1.203125 -14.859375 1.859375 -16.226562 3.171875 -17.25 C 4.492188 -18.269531 6.34375 -18.78125 8.71875 -18.78125 C 9.582031 -18.78125 10.382812 -18.71875 11.125 -18.59375 C 11.875 -18.476562 12.515625 -18.296875 13.046875 -18.046875 C 13.578125 -17.796875 13.992188 -17.472656 14.296875 -17.078125 C 14.597656 -16.691406 14.75 -16.238281 14.75 -15.71875 C 14.75 -15.1875 14.625 -14.734375 14.375 -14.359375 C 14.132812 -13.992188 13.847656 -13.679688 13.515625 -13.421875 C 13.066406 -13.703125 12.46875 -13.945312 11.71875 -14.15625 C 10.976562 -14.363281 10.164062 -14.46875 9.28125 -14.46875 C 8.382812 -14.46875 7.722656 -14.34375 7.296875 -14.09375 C 6.878906 -13.84375 6.671875 -13.523438 6.671875 -13.140625 C 6.671875 -12.847656 6.800781 -12.601562 7.0625 -12.40625 C 7.320312 -12.21875 7.710938 -12.039062 8.234375 -11.875 L 9.828125 -11.375 C 11.722656 -10.769531 13.175781 -10 14.1875 -9.0625 C 15.207031 -8.125 15.71875 -6.851562 15.71875 -5.25 C 15.71875 -3.539062 15.039062 -2.15625 13.6875 -1.09375 C 12.34375 -0.0390625 10.363281 0.484375 7.75 0.484375 C 6.820312 0.484375 5.960938 0.40625 5.171875 0.25 C 4.378906 0.101562 3.6875 -0.113281 3.09375 -0.40625 C 2.5 -0.695312 2.035156 -1.054688 1.703125 -1.484375 C 1.367188 -1.921875 1.203125 -2.421875 1.203125 -2.984375 C 1.203125 -3.566406 1.375 -4.0625 1.71875 -4.46875 C 2.0625 -4.882812 2.429688 -5.203125 2.828125 -5.421875 C 3.390625 -4.984375 4.078125 -4.601562 4.890625 -4.28125 C 5.710938 -3.957031 6.601562 -3.796875 7.5625 -3.796875 C 8.550781 -3.796875 9.242188 -3.945312 9.640625 -4.25 C 10.046875 -4.550781 10.25 -4.90625 10.25 -5.3125 C 10.25 -5.707031 10.085938 -6.007812 9.765625 -6.21875 C 9.441406 -6.4375 8.988281 -6.644531 8.40625 -6.84375 Z M 7.140625 -7.265625 "/></g></g></g><g fill="#ffffff" fill-opacity="0.4"><g transform="translate(181.490529, 222.268046)"><g><path d="M 11.28125 -14.59375 C 9.726562 -14.59375 8.539062 -14.117188 7.71875 -13.171875 C 6.894531 -12.234375 6.484375 -10.898438 6.484375 -9.171875 C 6.484375 -7.421875 6.941406 -6.070312 7.859375 -5.125 C 8.773438 -4.175781 10.003906 -3.703125 11.546875 -3.703125 C 12.367188 -3.703125 13.066406 -3.8125 13.640625 -4.03125 C 14.210938 -4.257812 14.765625 -4.515625 15.296875 -4.796875 C 15.628906 -4.515625 15.890625 -4.175781 16.078125 -3.78125 C 16.273438 -3.394531 16.375 -2.9375 16.375 -2.40625 C 16.375 -1.582031 15.914062 -0.882812 15 -0.3125 C 14.082031 0.257812 12.691406 0.546875 10.828125 0.546875 C 9.484375 0.546875 8.21875 0.351562 7.03125 -0.03125 C 5.84375 -0.414062 4.804688 -1.003906 3.921875 -1.796875 C 3.035156 -2.585938 2.335938 -3.59375 1.828125 -4.8125 C 1.316406 -6.03125 1.0625 -7.484375 1.0625 -9.171875 C 1.0625 -10.734375 1.304688 -12.113281 1.796875 -13.3125 C 2.285156 -14.507812 2.957031 -15.519531 3.8125 -16.34375 C 4.664062 -17.164062 5.664062 -17.785156 6.8125 -18.203125 C 7.957031 -18.628906 9.1875 -18.84375 10.5 -18.84375 C 12.34375 -18.84375 13.769531 -18.539062 14.78125 -17.9375 C 15.800781 -17.332031 16.3125 -16.5625 16.3125 -15.625 C 16.3125 -15.101562 16.179688 -14.648438 15.921875 -14.265625 C 15.660156 -13.878906 15.359375 -13.578125 15.015625 -13.359375 C 14.492188 -13.703125 13.9375 -13.992188 13.34375 -14.234375 C 12.75 -14.472656 12.0625 -14.59375 11.28125 -14.59375 Z M 11.28125 -14.59375 "/></g></g></g><g fill="#ffffff" fill-opacity="0.4"><g transform="translate(198.707632, 222.268046)"><g><path d="M 7.203125 -5.90625 L 7.203125 -0.125 C 6.984375 -0.0625 6.632812 0 6.15625 0.0625 C 5.6875 0.125 5.222656 0.15625 4.765625 0.15625 C 4.304688 0.15625 3.898438 0.117188 3.546875 0.046875 C 3.191406 -0.0234375 2.898438 -0.148438 2.671875 -0.328125 C 2.441406 -0.515625 2.265625 -0.765625 2.140625 -1.078125 C 2.015625 -1.398438 1.953125 -1.828125 1.953125 -2.359375 L 1.953125 -16.5625 C 1.953125 -16.976562 2.066406 -17.300781 2.296875 -17.53125 C 2.535156 -17.757812 2.851562 -17.945312 3.25 -18.09375 C 3.9375 -18.332031 4.734375 -18.503906 5.640625 -18.609375 C 6.546875 -18.722656 7.507812 -18.78125 8.53125 -18.78125 C 11.3125 -18.78125 13.40625 -18.195312 14.8125 -17.03125 C 16.21875 -15.875 16.921875 -14.296875 16.921875 -12.296875 C 16.921875 -11.054688 16.597656 -9.992188 15.953125 -9.109375 C 15.304688 -8.222656 14.539062 -7.539062 13.65625 -7.0625 C 14.382812 -6.070312 15.097656 -5.144531 15.796875 -4.28125 C 16.503906 -3.414062 17.054688 -2.632812 17.453125 -1.9375 C 17.253906 -1.226562 16.890625 -0.6875 16.359375 -0.3125 C 15.828125 0.0507812 15.226562 0.234375 14.5625 0.234375 C 14.125 0.234375 13.742188 0.179688 13.421875 0.078125 C 13.097656 -0.015625 12.816406 -0.148438 12.578125 -0.328125 C 12.335938 -0.515625 12.113281 -0.738281 11.90625 -1 C 11.707031 -1.257812 11.519531 -1.539062 11.34375 -1.84375 L 8.8125 -5.90625 Z M 9.109375 -9.921875 C 9.867188 -9.921875 10.46875 -10.113281 10.90625 -10.5 C 11.351562 -10.894531 11.578125 -11.476562 11.578125 -12.25 C 11.578125 -13.007812 11.332031 -13.582031 10.84375 -13.96875 C 10.351562 -14.363281 9.570312 -14.5625 8.5 -14.5625 C 8.195312 -14.5625 7.957031 -14.550781 7.78125 -14.53125 C 7.601562 -14.507812 7.398438 -14.476562 7.171875 -14.4375 L 7.171875 -9.921875 Z M 9.109375 -9.921875 "/></g></g></g><g fill="#ffffff" fill-opacity="0.4"><g transform="translate(217.070535, 222.268046)"><g><path d="M 14.8125 -18.28125 C 14.945312 -18.050781 15.066406 -17.75 15.171875 -17.375 C 15.285156 -17.007812 15.34375 -16.625 15.34375 -16.21875 C 15.34375 -15.4375 15.175781 -14.878906 14.84375 -14.546875 C 14.519531 -14.210938 14.078125 -14.046875 13.515625 -14.046875 L 7.171875 -14.046875 L 7.171875 -10.640625 L 13.78125 -10.640625 C 13.9375 -10.421875 14.070312 -10.128906 14.1875 -9.765625 C 14.300781 -9.410156 14.359375 -9.03125 14.359375 -8.625 C 14.359375 -7.863281 14.191406 -7.316406 13.859375 -6.984375 C 13.523438 -6.648438 13.078125 -6.484375 12.515625 -6.484375 L 7.234375 -6.484375 L 7.234375 -0.125 C 7.015625 -0.0625 6.664062 0 6.1875 0.0625 C 5.71875 0.125 5.253906 0.15625 4.796875 0.15625 C 4.328125 0.15625 3.914062 0.117188 3.5625 0.046875 C 3.21875 -0.0234375 2.925781 -0.148438 2.6875 -0.328125 C 2.445312 -0.515625 2.265625 -0.765625 2.140625 -1.078125 C 2.015625 -1.398438 1.953125 -1.828125 1.953125 -2.359375 L 1.953125 -15.46875 C 1.953125 -16.332031 2.203125 -17.015625 2.703125 -17.515625 C 3.210938 -18.023438 3.898438 -18.28125 4.765625 -18.28125 Z M 14.8125 -18.28125 "/></g></g></g><g fill="#ffffff" fill-opacity="0.4"><g transform="translate(233.081535, 222.268046)"><g/></g></g><g fill="#ffffff" fill-opacity="0.4"><g transform="translate(239.112036, 222.268046)"><g><path d="M 4.765625 0.09375 C 3.898438 0.09375 3.210938 -0.15625 2.703125 -0.65625 C 2.203125 -1.164062 1.953125 -1.851562 1.953125 -2.71875 L 1.953125 -18.3125 C 2.179688 -18.34375 2.535156 -18.394531 3.015625 -18.46875 C 3.492188 -18.539062 3.957031 -18.578125 4.40625 -18.578125 C 4.863281 -18.578125 5.269531 -18.539062 5.625 -18.46875 C 5.976562 -18.394531 6.273438 -18.269531 6.515625 -18.09375 C 6.753906 -17.914062 6.929688 -17.664062 7.046875 -17.34375 C 7.171875 -17.019531 7.234375 -16.597656 7.234375 -16.078125 L 7.234375 -4.15625 L 14.140625 -4.15625 C 14.285156 -3.9375 14.414062 -3.640625 14.53125 -3.265625 C 14.65625 -2.898438 14.71875 -2.515625 14.71875 -2.109375 C 14.71875 -1.304688 14.546875 -0.738281 14.203125 -0.40625 C 13.859375 -0.0703125 13.40625 0.09375 12.84375 0.09375 Z M 4.765625 0.09375 "/></g></g></g><g fill="#ffffff" fill-opacity="0.4"><g transform="translate(254.580288, 222.268046)"><g><path d="M 1.453125 -18.734375 C 1.453125 -19.492188 1.707031 -20.132812 2.21875 -20.65625 C 2.726562 -21.175781 3.40625 -21.4375 4.25 -21.4375 C 5.09375 -21.4375 5.769531 -21.175781 6.28125 -20.65625 C 6.800781 -20.132812 7.0625 -19.492188 7.0625 -18.734375 C 7.0625 -17.960938 6.800781 -17.316406 6.28125 -16.796875 C 5.769531 -16.273438 5.09375 -16.015625 4.25 -16.015625 C 3.40625 -16.015625 2.726562 -16.273438 2.21875 -16.796875 C 1.707031 -17.316406 1.453125 -17.960938 1.453125 -18.734375 Z M 6.8125 -0.03125 C 6.59375 0.0078125 6.265625 0.0625 5.828125 0.125 C 5.398438 0.195312 4.960938 0.234375 4.515625 0.234375 C 4.078125 0.234375 3.679688 0.203125 3.328125 0.140625 C 2.972656 0.0859375 2.675781 -0.0234375 2.4375 -0.203125 C 2.195312 -0.390625 2.007812 -0.640625 1.875 -0.953125 C 1.75 -1.265625 1.6875 -1.671875 1.6875 -2.171875 L 1.6875 -14.4375 C 1.90625 -14.476562 2.226562 -14.535156 2.65625 -14.609375 C 3.09375 -14.679688 3.535156 -14.71875 3.984375 -14.71875 C 4.421875 -14.71875 4.816406 -14.6875 5.171875 -14.625 C 5.523438 -14.5625 5.820312 -14.441406 6.0625 -14.265625 C 6.300781 -14.085938 6.484375 -13.84375 6.609375 -13.53125 C 6.742188 -13.21875 6.8125 -12.804688 6.8125 -12.296875 Z M 6.8125 -0.03125 "/></g></g></g><g fill="#ffffff" fill-opacity="0.4"><g transform="translate(263.0833, 222.268046)"><g><path d="M 8.71875 -15.109375 C 9.863281 -15.109375 10.898438 -14.960938 11.828125 -14.671875 C 12.765625 -14.378906 13.554688 -14.003906 14.203125 -13.546875 C 14.609375 -13.265625 14.925781 -12.953125 15.15625 -12.609375 C 15.382812 -12.265625 15.5 -11.820312 15.5 -11.28125 L 15.5 -0.71875 C 15.5 0.34375 15.296875 1.257812 14.890625 2.03125 C 14.492188 2.8125 13.945312 3.457031 13.25 3.96875 C 12.5625 4.476562 11.75 4.851562 10.8125 5.09375 C 9.875 5.332031 8.875 5.453125 7.8125 5.453125 C 5.976562 5.453125 4.539062 5.207031 3.5 4.71875 C 2.457031 4.226562 1.9375 3.429688 1.9375 2.328125 C 1.9375 1.859375 2.03125 1.445312 2.21875 1.09375 C 2.40625 0.75 2.617188 0.484375 2.859375 0.296875 C 3.441406 0.617188 4.097656 0.890625 4.828125 1.109375 C 5.566406 1.335938 6.328125 1.453125 7.109375 1.453125 C 8.203125 1.453125 9.066406 1.269531 9.703125 0.90625 C 10.347656 0.539062 10.671875 -0.0390625 10.671875 -0.84375 L 10.671875 -1.328125 C 9.847656 -0.960938 8.84375 -0.78125 7.65625 -0.78125 C 6.75 -0.78125 5.890625 -0.914062 5.078125 -1.1875 C 4.265625 -1.457031 3.550781 -1.878906 2.9375 -2.453125 C 2.320312 -3.023438 1.828125 -3.765625 1.453125 -4.671875 C 1.085938 -5.578125 0.90625 -6.65625 0.90625 -7.90625 C 0.90625 -9.125 1.097656 -10.1875 1.484375 -11.09375 C 1.878906 -12 2.421875 -12.75 3.109375 -13.34375 C 3.804688 -13.9375 4.632812 -14.378906 5.59375 -14.671875 C 6.550781 -14.960938 7.59375 -15.109375 8.71875 -15.109375 Z M 10.578125 -10.734375 C 10.441406 -10.816406 10.238281 -10.894531 9.96875 -10.96875 C 9.695312 -11.050781 9.359375 -11.09375 8.953125 -11.09375 C 7.972656 -11.09375 7.234375 -10.816406 6.734375 -10.265625 C 6.242188 -9.710938 6 -8.925781 6 -7.90625 C 6 -6.738281 6.242188 -5.894531 6.734375 -5.375 C 7.234375 -4.863281 7.863281 -4.609375 8.625 -4.609375 C 9.445312 -4.609375 10.097656 -4.800781 10.578125 -5.1875 Z M 10.578125 -10.734375 "/></g></g></g><g fill="#ffffff" fill-opacity="0.4"><g transform="translate(280.179796, 222.268046)"><g><path d="M 16.046875 -0.03125 C 15.835938 0.03125 15.515625 0.0859375 15.078125 0.140625 C 14.648438 0.203125 14.207031 0.234375 13.75 0.234375 C 13.3125 0.234375 12.914062 0.203125 12.5625 0.140625 C 12.207031 0.0859375 11.910156 -0.0234375 11.671875 -0.203125 C 11.429688 -0.390625 11.242188 -0.640625 11.109375 -0.953125 C 10.984375 -1.265625 10.921875 -1.671875 10.921875 -2.171875 L 10.921875 -8.859375 C 10.921875 -9.691406 10.710938 -10.269531 10.296875 -10.59375 C 9.890625 -10.925781 9.382812 -11.09375 8.78125 -11.09375 C 8.375 -11.09375 7.988281 -11.039062 7.625 -10.9375 C 7.269531 -10.84375 6.976562 -10.722656 6.75 -10.578125 L 6.75 -0.03125 C 6.550781 0.03125 6.234375 0.0859375 5.796875 0.140625 C 5.367188 0.203125 4.925781 0.234375 4.46875 0.234375 C 4.019531 0.234375 3.617188 0.203125 3.265625 0.140625 C 2.921875 0.0859375 2.625 -0.0234375 2.375 -0.203125 C 2.132812 -0.390625 1.945312 -0.640625 1.8125 -0.953125 C 1.6875 -1.265625 1.625 -1.671875 1.625 -2.171875 L 1.625 -19.65625 C 1.84375 -19.695312 2.164062 -19.753906 2.59375 -19.828125 C 3.03125 -19.898438 3.472656 -19.9375 3.921875 -19.9375 C 4.359375 -19.9375 4.753906 -19.90625 5.109375 -19.84375 C 5.460938 -19.78125 5.757812 -19.65625 6 -19.46875 C 6.238281 -19.289062 6.421875 -19.046875 6.546875 -18.734375 C 6.679688 -18.429688 6.75 -18.023438 6.75 -17.515625 L 6.75 -14.5625 C 7.007812 -14.664062 7.40625 -14.78125 7.9375 -14.90625 C 8.476562 -15.039062 9.066406 -15.109375 9.703125 -15.109375 C 11.703125 -15.109375 13.257812 -14.609375 14.375 -13.609375 C 15.488281 -12.617188 16.046875 -11.140625 16.046875 -9.171875 Z M 16.046875 -0.03125 "/></g></g></g><g fill="#ffffff" fill-opacity="0.4"><g transform="translate(297.819024, 222.268046)"><g><path d="M 6.6875 -5.03125 C 6.6875 -4.507812 6.851562 -4.140625 7.1875 -3.921875 C 7.519531 -3.703125 7.988281 -3.59375 8.59375 -3.59375 C 8.894531 -3.59375 9.207031 -3.613281 9.53125 -3.65625 C 9.851562 -3.707031 10.132812 -3.773438 10.375 -3.859375 C 10.550781 -3.640625 10.703125 -3.394531 10.828125 -3.125 C 10.960938 -2.851562 11.03125 -2.523438 11.03125 -2.140625 C 11.03125 -1.378906 10.742188 -0.753906 10.171875 -0.265625 C 9.597656 0.210938 8.585938 0.453125 7.140625 0.453125 C 5.378906 0.453125 4.019531 0.0507812 3.0625 -0.75 C 2.101562 -1.550781 1.625 -2.859375 1.625 -4.671875 L 1.625 -17.578125 C 1.84375 -17.640625 2.160156 -17.703125 2.578125 -17.765625 C 2.992188 -17.835938 3.429688 -17.875 3.890625 -17.875 C 4.773438 -17.875 5.460938 -17.71875 5.953125 -17.40625 C 6.441406 -17.101562 6.6875 -16.445312 6.6875 -15.4375 L 6.6875 -13.515625 L 10.640625 -13.515625 C 10.765625 -13.285156 10.878906 -13.003906 10.984375 -12.671875 C 11.097656 -12.347656 11.15625 -11.984375 11.15625 -11.578125 C 11.15625 -10.878906 11 -10.375 10.6875 -10.0625 C 10.375 -9.75 9.957031 -9.59375 9.4375 -9.59375 L 6.6875 -9.59375 Z M 6.6875 -5.03125 "/></g></g></g><g fill="#ffffff" fill-opacity="0.4"><g transform="translate(309.880044, 222.268046)"><g><path d="M 9.3125 0.484375 C 8.125 0.484375 7.023438 0.316406 6.015625 -0.015625 C 5.003906 -0.347656 4.117188 -0.84375 3.359375 -1.5 C 2.609375 -2.164062 2.015625 -3 1.578125 -4 C 1.148438 -5.007812 0.9375 -6.1875 0.9375 -7.53125 C 0.9375 -8.863281 1.148438 -10.003906 1.578125 -10.953125 C 2.015625 -11.910156 2.582031 -12.695312 3.28125 -13.3125 C 3.988281 -13.925781 4.796875 -14.378906 5.703125 -14.671875 C 6.609375 -14.960938 7.53125 -15.109375 8.46875 -15.109375 C 9.539062 -15.109375 10.515625 -14.945312 11.390625 -14.625 C 12.265625 -14.300781 13.015625 -13.859375 13.640625 -13.296875 C 14.273438 -12.734375 14.769531 -12.0625 15.125 -11.28125 C 15.476562 -10.5 15.65625 -9.644531 15.65625 -8.71875 C 15.65625 -8.03125 15.460938 -7.503906 15.078125 -7.140625 C 14.691406 -6.785156 14.160156 -6.554688 13.484375 -6.453125 L 6.03125 -5.34375 C 6.25 -4.675781 6.695312 -4.175781 7.375 -3.84375 C 8.0625 -3.507812 8.847656 -3.34375 9.734375 -3.34375 C 10.566406 -3.34375 11.347656 -3.445312 12.078125 -3.65625 C 12.804688 -3.875 13.40625 -4.125 13.875 -4.40625 C 14.195312 -4.195312 14.46875 -3.910156 14.6875 -3.546875 C 14.90625 -3.191406 15.015625 -2.8125 15.015625 -2.40625 C 15.015625 -1.507812 14.59375 -0.835938 13.75 -0.390625 C 13.101562 -0.046875 12.378906 0.179688 11.578125 0.296875 C 10.773438 0.421875 10.019531 0.484375 9.3125 0.484375 Z M 8.46875 -11.375 C 7.988281 -11.375 7.570312 -11.289062 7.21875 -11.125 C 6.863281 -10.96875 6.578125 -10.757812 6.359375 -10.5 C 6.140625 -10.25 5.972656 -9.96875 5.859375 -9.65625 C 5.753906 -9.351562 5.691406 -9.039062 5.671875 -8.71875 L 10.828125 -9.5625 C 10.765625 -9.957031 10.539062 -10.359375 10.15625 -10.765625 C 9.78125 -11.171875 9.21875 -11.375 8.46875 -11.375 Z M 8.46875 -11.375 "/></g></g></g><g fill="#ffffff" fill-opacity="0.4"><g transform="translate(326.433791, 222.268046)"><g><path d="M 6.6875 -0.03125 C 6.488281 0.03125 6.171875 0.0859375 5.734375 0.140625 C 5.304688 0.203125 4.863281 0.234375 4.40625 0.234375 C 3.957031 0.234375 3.554688 0.203125 3.203125 0.140625 C 2.859375 0.0859375 2.5625 -0.0234375 2.3125 -0.203125 C 2.070312 -0.390625 1.882812 -0.640625 1.75 -0.953125 C 1.625 -1.265625 1.5625 -1.671875 1.5625 -2.171875 L 1.5625 -11.21875 C 1.5625 -11.675781 1.644531 -12.070312 1.8125 -12.40625 C 1.988281 -12.738281 2.238281 -13.035156 2.5625 -13.296875 C 2.882812 -13.554688 3.28125 -13.789062 3.75 -14 C 4.226562 -14.21875 4.738281 -14.40625 5.28125 -14.5625 C 5.820312 -14.726562 6.382812 -14.851562 6.96875 -14.9375 C 7.550781 -15.03125 8.132812 -15.078125 8.71875 -15.078125 C 9.675781 -15.078125 10.4375 -14.890625 11 -14.515625 C 11.5625 -14.148438 11.84375 -13.546875 11.84375 -12.703125 C 11.84375 -12.421875 11.800781 -12.140625 11.71875 -11.859375 C 11.644531 -11.585938 11.546875 -11.34375 11.421875 -11.125 C 11.003906 -11.125 10.570312 -11.101562 10.125 -11.0625 C 9.6875 -11.019531 9.253906 -10.957031 8.828125 -10.875 C 8.410156 -10.800781 8.015625 -10.71875 7.640625 -10.625 C 7.273438 -10.539062 6.957031 -10.4375 6.6875 -10.3125 Z M 6.6875 -0.03125 "/></g></g></g><g fill="#161b23" fill-opacity="1"><g transform="translate(163.543676, 220.935242)"><g><path d="M 7.140625 -7.265625 C 6.253906 -7.566406 5.453125 -7.875 4.734375 -8.1875 C 4.015625 -8.5 3.390625 -8.875 2.859375 -9.3125 C 2.335938 -9.757812 1.929688 -10.289062 1.640625 -10.90625 C 1.347656 -11.519531 1.203125 -12.265625 1.203125 -13.140625 C 1.203125 -14.859375 1.859375 -16.226562 3.171875 -17.25 C 4.492188 -18.269531 6.34375 -18.78125 8.71875 -18.78125 C 9.582031 -18.78125 10.382812 -18.71875 11.125 -18.59375 C 11.875 -18.476562 12.515625 -18.296875 13.046875 -18.046875 C 13.578125 -17.796875 13.992188 -17.472656 14.296875 -17.078125 C 14.597656 -16.691406 14.75 -16.238281 14.75 -15.71875 C 14.75 -15.1875 14.625 -14.734375 14.375 -14.359375 C 14.132812 -13.992188 13.847656 -13.679688 13.515625 -13.421875 C 13.066406 -13.703125 12.46875 -13.945312 11.71875 -14.15625 C 10.976562 -14.363281 10.164062 -14.46875 9.28125 -14.46875 C 8.382812 -14.46875 7.722656 -14.34375 7.296875 -14.09375 C 6.878906 -13.84375 6.671875 -13.523438 6.671875 -13.140625 C 6.671875 -12.847656 6.800781 -12.601562 7.0625 -12.40625 C 7.320312 -12.21875 7.710938 -12.039062 8.234375 -11.875 L 9.828125 -11.375 C 11.722656 -10.769531 13.175781 -10 14.1875 -9.0625 C 15.207031 -8.125 15.71875 -6.851562 15.71875 -5.25 C 15.71875 -3.539062 15.039062 -2.15625 13.6875 -1.09375 C 12.34375 -0.0390625 10.363281 0.484375 7.75 0.484375 C 6.820312 0.484375 5.960938 0.40625 5.171875 0.25 C 4.378906 0.101562 3.6875 -0.113281 3.09375 -0.40625 C 2.5 -0.695312 2.035156 -1.054688 1.703125 -1.484375 C 1.367188 -1.921875 1.203125 -2.421875 1.203125 -2.984375 C 1.203125 -3.566406 1.375 -4.0625 1.71875 -4.46875 C 2.0625 -4.882812 2.429688 -5.203125 2.828125 -5.421875 C 3.390625 -4.984375 4.078125 -4.601562 4.890625 -4.28125 C 5.710938 -3.957031 6.601562 -3.796875 7.5625 -3.796875 C 8.550781 -3.796875 9.242188 -3.945312 9.640625 -4.25 C 10.046875 -4.550781 10.25 -4.90625 10.25 -5.3125 C 10.25 -5.707031 10.085938 -6.007812 9.765625 -6.21875 C 9.441406 -6.4375 8.988281 -6.644531 8.40625 -6.84375 Z M 7.140625 -7.265625 "/></g></g></g><g fill="#161b23" fill-opacity="1"><g transform="translate(180.157727, 220.935242)"><g><path d="M 11.28125 -14.59375 C 9.726562 -14.59375 8.539062 -14.117188 7.71875 -13.171875 C 6.894531 -12.234375 6.484375 -10.898438 6.484375 -9.171875 C 6.484375 -7.421875 6.941406 -6.070312 7.859375 -5.125 C 8.773438 -4.175781 10.003906 -3.703125 11.546875 -3.703125 C 12.367188 -3.703125 13.066406 -3.8125 13.640625 -4.03125 C 14.210938 -4.257812 14.765625 -4.515625 15.296875 -4.796875 C 15.628906 -4.515625 15.890625 -4.175781 16.078125 -3.78125 C 16.273438 -3.394531 16.375 -2.9375 16.375 -2.40625 C 16.375 -1.582031 15.914062 -0.882812 15 -0.3125 C 14.082031 0.257812 12.691406 0.546875 10.828125 0.546875 C 9.484375 0.546875 8.21875 0.351562 7.03125 -0.03125 C 5.84375 -0.414062 4.804688 -1.003906 3.921875 -1.796875 C 3.035156 -2.585938 2.335938 -3.59375 1.828125 -4.8125 C 1.316406 -6.03125 1.0625 -7.484375 1.0625 -9.171875 C 1.0625 -10.734375 1.304688 -12.113281 1.796875 -13.3125 C 2.285156 -14.507812 2.957031 -15.519531 3.8125 -16.34375 C 4.664062 -17.164062 5.664062 -17.785156 6.8125 -18.203125 C 7.957031 -18.628906 9.1875 -18.84375 10.5 -18.84375 C 12.34375 -18.84375 13.769531 -18.539062 14.78125 -17.9375 C 15.800781 -17.332031 16.3125 -16.5625 16.3125 -15.625 C 16.3125 -15.101562 16.179688 -14.648438 15.921875 -14.265625 C 15.660156 -13.878906 15.359375 -13.578125 15.015625 -13.359375 C 14.492188 -13.703125 13.9375 -13.992188 13.34375 -14.234375 C 12.75 -14.472656 12.0625 -14.59375 11.28125 -14.59375 Z M 11.28125 -14.59375 "/></g></g></g><g fill="#161b23" fill-opacity="1"><g transform="translate(197.37483, 220.935242)"><g><path d="M 7.203125 -5.90625 L 7.203125 -0.125 C 6.984375 -0.0625 6.632812 0 6.15625 0.0625 C 5.6875 0.125 5.222656 0.15625 4.765625 0.15625 C 4.304688 0.15625 3.898438 0.117188 3.546875 0.046875 C 3.191406 -0.0234375 2.898438 -0.148438 2.671875 -0.328125 C 2.441406 -0.515625 2.265625 -0.765625 2.140625 -1.078125 C 2.015625 -1.398438 1.953125 -1.828125 1.953125 -2.359375 L 1.953125 -16.5625 C 1.953125 -16.976562 2.066406 -17.300781 2.296875 -17.53125 C 2.535156 -17.757812 2.851562 -17.945312 3.25 -18.09375 C 3.9375 -18.332031 4.734375 -18.503906 5.640625 -18.609375 C 6.546875 -18.722656 7.507812 -18.78125 8.53125 -18.78125 C 11.3125 -18.78125 13.40625 -18.195312 14.8125 -17.03125 C 16.21875 -15.875 16.921875 -14.296875 16.921875 -12.296875 C 16.921875 -11.054688 16.597656 -9.992188 15.953125 -9.109375 C 15.304688 -8.222656 14.539062 -7.539062 13.65625 -7.0625 C 14.382812 -6.070312 15.097656 -5.144531 15.796875 -4.28125 C 16.503906 -3.414062 17.054688 -2.632812 17.453125 -1.9375 C 17.253906 -1.226562 16.890625 -0.6875 16.359375 -0.3125 C 15.828125 0.0507812 15.226562 0.234375 14.5625 0.234375 C 14.125 0.234375 13.742188 0.179688 13.421875 0.078125 C 13.097656 -0.015625 12.816406 -0.148438 12.578125 -0.328125 C 12.335938 -0.515625 12.113281 -0.738281 11.90625 -1 C 11.707031 -1.257812 11.519531 -1.539062 11.34375 -1.84375 L 8.8125 -5.90625 Z M 9.109375 -9.921875 C 9.867188 -9.921875 10.46875 -10.113281 10.90625 -10.5 C 11.351562 -10.894531 11.578125 -11.476562 11.578125 -12.25 C 11.578125 -13.007812 11.332031 -13.582031 10.84375 -13.96875 C 10.351562 -14.363281 9.570312 -14.5625 8.5 -14.5625 C 8.195312 -14.5625 7.957031 -14.550781 7.78125 -14.53125 C 7.601562 -14.507812 7.398438 -14.476562 7.171875 -14.4375 L 7.171875 -9.921875 Z M 9.109375 -9.921875 "/></g></g></g><g fill="#161b23" fill-opacity="1"><g transform="translate(215.737734, 220.935242)"><g><path d="M 14.8125 -18.28125 C 14.945312 -18.050781 15.066406 -17.75 15.171875 -17.375 C 15.285156 -17.007812 15.34375 -16.625 15.34375 -16.21875 C 15.34375 -15.4375 15.175781 -14.878906 14.84375 -14.546875 C 14.519531 -14.210938 14.078125 -14.046875 13.515625 -14.046875 L 7.171875 -14.046875 L 7.171875 -10.640625 L 13.78125 -10.640625 C 13.9375 -10.421875 14.070312 -10.128906 14.1875 -9.765625 C 14.300781 -9.410156 14.359375 -9.03125 14.359375 -8.625 C 14.359375 -7.863281 14.191406 -7.316406 13.859375 -6.984375 C 13.523438 -6.648438 13.078125 -6.484375 12.515625 -6.484375 L 7.234375 -6.484375 L 7.234375 -0.125 C 7.015625 -0.0625 6.664062 0 6.1875 0.0625 C 5.71875 0.125 5.253906 0.15625 4.796875 0.15625 C 4.328125 0.15625 3.914062 0.117188 3.5625 0.046875 C 3.21875 -0.0234375 2.925781 -0.148438 2.6875 -0.328125 C 2.445312 -0.515625 2.265625 -0.765625 2.140625 -1.078125 C 2.015625 -1.398438 1.953125 -1.828125 1.953125 -2.359375 L 1.953125 -15.46875 C 1.953125 -16.332031 2.203125 -17.015625 2.703125 -17.515625 C 3.210938 -18.023438 3.898438 -18.28125 4.765625 -18.28125 Z M 14.8125 -18.28125 "/></g></g></g><g fill="#161b23" fill-opacity="1"><g transform="translate(231.748733, 220.935242)"><g/></g></g><g fill="#161b23" fill-opacity="1"><g transform="translate(237.779235, 220.935242)"><g><path d="M 4.765625 0.09375 C 3.898438 0.09375 3.210938 -0.15625 2.703125 -0.65625 C 2.203125 -1.164062 1.953125 -1.851562 1.953125 -2.71875 L 1.953125 -18.3125 C 2.179688 -18.34375 2.535156 -18.394531 3.015625 -18.46875 C 3.492188 -18.539062 3.957031 -18.578125 4.40625 -18.578125 C 4.863281 -18.578125 5.269531 -18.539062 5.625 -18.46875 C 5.976562 -18.394531 6.273438 -18.269531 6.515625 -18.09375 C 6.753906 -17.914062 6.929688 -17.664062 7.046875 -17.34375 C 7.171875 -17.019531 7.234375 -16.597656 7.234375 -16.078125 L 7.234375 -4.15625 L 14.140625 -4.15625 C 14.285156 -3.9375 14.414062 -3.640625 14.53125 -3.265625 C 14.65625 -2.898438 14.71875 -2.515625 14.71875 -2.109375 C 14.71875 -1.304688 14.546875 -0.738281 14.203125 -0.40625 C 13.859375 -0.0703125 13.40625 0.09375 12.84375 0.09375 Z M 4.765625 0.09375 "/></g></g></g><g fill="#161b23" fill-opacity="1"><g transform="translate(253.247486, 220.935242)"><g><path d="M 1.453125 -18.734375 C 1.453125 -19.492188 1.707031 -20.132812 2.21875 -20.65625 C 2.726562 -21.175781 3.40625 -21.4375 4.25 -21.4375 C 5.09375 -21.4375 5.769531 -21.175781 6.28125 -20.65625 C 6.800781 -20.132812 7.0625 -19.492188 7.0625 -18.734375 C 7.0625 -17.960938 6.800781 -17.316406 6.28125 -16.796875 C 5.769531 -16.273438 5.09375 -16.015625 4.25 -16.015625 C 3.40625 -16.015625 2.726562 -16.273438 2.21875 -16.796875 C 1.707031 -17.316406 1.453125 -17.960938 1.453125 -18.734375 Z M 6.8125 -0.03125 C 6.59375 0.0078125 6.265625 0.0625 5.828125 0.125 C 5.398438 0.195312 4.960938 0.234375 4.515625 0.234375 C 4.078125 0.234375 3.679688 0.203125 3.328125 0.140625 C 2.972656 0.0859375 2.675781 -0.0234375 2.4375 -0.203125 C 2.195312 -0.390625 2.007812 -0.640625 1.875 -0.953125 C 1.75 -1.265625 1.6875 -1.671875 1.6875 -2.171875 L 1.6875 -14.4375 C 1.90625 -14.476562 2.226562 -14.535156 2.65625 -14.609375 C 3.09375 -14.679688 3.535156 -14.71875 3.984375 -14.71875 C 4.421875 -14.71875 4.816406 -14.6875 5.171875 -14.625 C 5.523438 -14.5625 5.820312 -14.441406 6.0625 -14.265625 C 6.300781 -14.085938 6.484375 -13.84375 6.609375 -13.53125 C 6.742188 -13.21875 6.8125 -12.804688 6.8125 -12.296875 Z M 6.8125 -0.03125 "/></g></g></g><g fill="#161b23" fill-opacity="1"><g transform="translate(261.750499, 220.935242)"><g><path d="M 8.71875 -15.109375 C 9.863281 -15.109375 10.898438 -14.960938 11.828125 -14.671875 C 12.765625 -14.378906 13.554688 -14.003906 14.203125 -13.546875 C 14.609375 -13.265625 14.925781 -12.953125 15.15625 -12.609375 C 15.382812 -12.265625 15.5 -11.820312 15.5 -11.28125 L 15.5 -0.71875 C 15.5 0.34375 15.296875 1.257812 14.890625 2.03125 C 14.492188 2.8125 13.945312 3.457031 13.25 3.96875 C 12.5625 4.476562 11.75 4.851562 10.8125 5.09375 C 9.875 5.332031 8.875 5.453125 7.8125 5.453125 C 5.976562 5.453125 4.539062 5.207031 3.5 4.71875 C 2.457031 4.226562 1.9375 3.429688 1.9375 2.328125 C 1.9375 1.859375 2.03125 1.445312 2.21875 1.09375 C 2.40625 0.75 2.617188 0.484375 2.859375 0.296875 C 3.441406 0.617188 4.097656 0.890625 4.828125 1.109375 C 5.566406 1.335938 6.328125 1.453125 7.109375 1.453125 C 8.203125 1.453125 9.066406 1.269531 9.703125 0.90625 C 10.347656 0.539062 10.671875 -0.0390625 10.671875 -0.84375 L 10.671875 -1.328125 C 9.847656 -0.960938 8.84375 -0.78125 7.65625 -0.78125 C 6.75 -0.78125 5.890625 -0.914062 5.078125 -1.1875 C 4.265625 -1.457031 3.550781 -1.878906 2.9375 -2.453125 C 2.320312 -3.023438 1.828125 -3.765625 1.453125 -4.671875 C 1.085938 -5.578125 0.90625 -6.65625 0.90625 -7.90625 C 0.90625 -9.125 1.097656 -10.1875 1.484375 -11.09375 C 1.878906 -12 2.421875 -12.75 3.109375 -13.34375 C 3.804688 -13.9375 4.632812 -14.378906 5.59375 -14.671875 C 6.550781 -14.960938 7.59375 -15.109375 8.71875 -15.109375 Z M 10.578125 -10.734375 C 10.441406 -10.816406 10.238281 -10.894531 9.96875 -10.96875 C 9.695312 -11.050781 9.359375 -11.09375 8.953125 -11.09375 C 7.972656 -11.09375 7.234375 -10.816406 6.734375 -10.265625 C 6.242188 -9.710938 6 -8.925781 6 -7.90625 C 6 -6.738281 6.242188 -5.894531 6.734375 -5.375 C 7.234375 -4.863281 7.863281 -4.609375 8.625 -4.609375 C 9.445312 -4.609375 10.097656 -4.800781 10.578125 -5.1875 Z M 10.578125 -10.734375 "/></g></g></g><g fill="#161b23" fill-opacity="1"><g transform="translate(278.846994, 220.935242)"><g><path d="M 16.046875 -0.03125 C 15.835938 0.03125 15.515625 0.0859375 15.078125 0.140625 C 14.648438 0.203125 14.207031 0.234375 13.75 0.234375 C 13.3125 0.234375 12.914062 0.203125 12.5625 0.140625 C 12.207031 0.0859375 11.910156 -0.0234375 11.671875 -0.203125 C 11.429688 -0.390625 11.242188 -0.640625 11.109375 -0.953125 C 10.984375 -1.265625 10.921875 -1.671875 10.921875 -2.171875 L 10.921875 -8.859375 C 10.921875 -9.691406 10.710938 -10.269531 10.296875 -10.59375 C 9.890625 -10.925781 9.382812 -11.09375 8.78125 -11.09375 C 8.375 -11.09375 7.988281 -11.039062 7.625 -10.9375 C 7.269531 -10.84375 6.976562 -10.722656 6.75 -10.578125 L 6.75 -0.03125 C 6.550781 0.03125 6.234375 0.0859375 5.796875 0.140625 C 5.367188 0.203125 4.925781 0.234375 4.46875 0.234375 C 4.019531 0.234375 3.617188 0.203125 3.265625 0.140625 C 2.921875 0.0859375 2.625 -0.0234375 2.375 -0.203125 C 2.132812 -0.390625 1.945312 -0.640625 1.8125 -0.953125 C 1.6875 -1.265625 1.625 -1.671875 1.625 -2.171875 L 1.625 -19.65625 C 1.84375 -19.695312 2.164062 -19.753906 2.59375 -19.828125 C 3.03125 -19.898438 3.472656 -19.9375 3.921875 -19.9375 C 4.359375 -19.9375 4.753906 -19.90625 5.109375 -19.84375 C 5.460938 -19.78125 5.757812 -19.65625 6 -19.46875 C 6.238281 -19.289062 6.421875 -19.046875 6.546875 -18.734375 C 6.679688 -18.429688 6.75 -18.023438 6.75 -17.515625 L 6.75 -14.5625 C 7.007812 -14.664062 7.40625 -14.78125 7.9375 -14.90625 C 8.476562 -15.039062 9.066406 -15.109375 9.703125 -15.109375 C 11.703125 -15.109375 13.257812 -14.609375 14.375 -13.609375 C 15.488281 -12.617188 16.046875 -11.140625 16.046875 -9.171875 Z M 16.046875 -0.03125 "/></g></g></g><g fill="#161b23" fill-opacity="1"><g transform="translate(296.486223, 220.935242)"><g><path d="M 6.6875 -5.03125 C 6.6875 -4.507812 6.851562 -4.140625 7.1875 -3.921875 C 7.519531 -3.703125 7.988281 -3.59375 8.59375 -3.59375 C 8.894531 -3.59375 9.207031 -3.613281 9.53125 -3.65625 C 9.851562 -3.707031 10.132812 -3.773438 10.375 -3.859375 C 10.550781 -3.640625 10.703125 -3.394531 10.828125 -3.125 C 10.960938 -2.851562 11.03125 -2.523438 11.03125 -2.140625 C 11.03125 -1.378906 10.742188 -0.753906 10.171875 -0.265625 C 9.597656 0.210938 8.585938 0.453125 7.140625 0.453125 C 5.378906 0.453125 4.019531 0.0507812 3.0625 -0.75 C 2.101562 -1.550781 1.625 -2.859375 1.625 -4.671875 L 1.625 -17.578125 C 1.84375 -17.640625 2.160156 -17.703125 2.578125 -17.765625 C 2.992188 -17.835938 3.429688 -17.875 3.890625 -17.875 C 4.773438 -17.875 5.460938 -17.71875 5.953125 -17.40625 C 6.441406 -17.101562 6.6875 -16.445312 6.6875 -15.4375 L 6.6875 -13.515625 L 10.640625 -13.515625 C 10.765625 -13.285156 10.878906 -13.003906 10.984375 -12.671875 C 11.097656 -12.347656 11.15625 -11.984375 11.15625 -11.578125 C 11.15625 -10.878906 11 -10.375 10.6875 -10.0625 C 10.375 -9.75 9.957031 -9.59375 9.4375 -9.59375 L 6.6875 -9.59375 Z M 6.6875 -5.03125 "/></g></g></g><g fill="#161b23" fill-opacity="1"><g transform="translate(308.547242, 220.935242)"><g><path d="M 9.3125 0.484375 C 8.125 0.484375 7.023438 0.316406 6.015625 -0.015625 C 5.003906 -0.347656 4.117188 -0.84375 3.359375 -1.5 C 2.609375 -2.164062 2.015625 -3 1.578125 -4 C 1.148438 -5.007812 0.9375 -6.1875 0.9375 -7.53125 C 0.9375 -8.863281 1.148438 -10.003906 1.578125 -10.953125 C 2.015625 -11.910156 2.582031 -12.695312 3.28125 -13.3125 C 3.988281 -13.925781 4.796875 -14.378906 5.703125 -14.671875 C 6.609375 -14.960938 7.53125 -15.109375 8.46875 -15.109375 C 9.539062 -15.109375 10.515625 -14.945312 11.390625 -14.625 C 12.265625 -14.300781 13.015625 -13.859375 13.640625 -13.296875 C 14.273438 -12.734375 14.769531 -12.0625 15.125 -11.28125 C 15.476562 -10.5 15.65625 -9.644531 15.65625 -8.71875 C 15.65625 -8.03125 15.460938 -7.503906 15.078125 -7.140625 C 14.691406 -6.785156 14.160156 -6.554688 13.484375 -6.453125 L 6.03125 -5.34375 C 6.25 -4.675781 6.695312 -4.175781 7.375 -3.84375 C 8.0625 -3.507812 8.847656 -3.34375 9.734375 -3.34375 C 10.566406 -3.34375 11.347656 -3.445312 12.078125 -3.65625 C 12.804688 -3.875 13.40625 -4.125 13.875 -4.40625 C 14.195312 -4.195312 14.46875 -3.910156 14.6875 -3.546875 C 14.90625 -3.191406 15.015625 -2.8125 15.015625 -2.40625 C 15.015625 -1.507812 14.59375 -0.835938 13.75 -0.390625 C 13.101562 -0.046875 12.378906 0.179688 11.578125 0.296875 C 10.773438 0.421875 10.019531 0.484375 9.3125 0.484375 Z M 8.46875 -11.375 C 7.988281 -11.375 7.570312 -11.289062 7.21875 -11.125 C 6.863281 -10.96875 6.578125 -10.757812 6.359375 -10.5 C 6.140625 -10.25 5.972656 -9.96875 5.859375 -9.65625 C 5.753906 -9.351562 5.691406 -9.039062 5.671875 -8.71875 L 10.828125 -9.5625 C 10.765625 -9.957031 10.539062 -10.359375 10.15625 -10.765625 C 9.78125 -11.171875 9.21875 -11.375 8.46875 -11.375 Z M 8.46875 -11.375 "/></g></g></g><g fill="#161b23" fill-opacity="1"><g transform="translate(325.10099, 220.935242)"><g><path d="M 6.6875 -0.03125 C 6.488281 0.03125 6.171875 0.0859375 5.734375 0.140625 C 5.304688 0.203125 4.863281 0.234375 4.40625 0.234375 C 3.957031 0.234375 3.554688 0.203125 3.203125 0.140625 C 2.859375 0.0859375 2.5625 -0.0234375 2.3125 -0.203125 C 2.070312 -0.390625 1.882812 -0.640625 1.75 -0.953125 C 1.625 -1.265625 1.5625 -1.671875 1.5625 -2.171875 L 1.5625 -11.21875 C 1.5625 -11.675781 1.644531 -12.070312 1.8125 -12.40625 C 1.988281 -12.738281 2.238281 -13.035156 2.5625 -13.296875 C 2.882812 -13.554688 3.28125 -13.789062 3.75 -14 C 4.226562 -14.21875 4.738281 -14.40625 5.28125 -14.5625 C 5.820312 -14.726562 6.382812 -14.851562 6.96875 -14.9375 C 7.550781 -15.03125 8.132812 -15.078125 8.71875 -15.078125 C 9.675781 -15.078125 10.4375 -14.890625 11 -14.515625 C 11.5625 -14.148438 11.84375 -13.546875 11.84375 -12.703125 C 11.84375 -12.421875 11.800781 -12.140625 11.71875 -11.859375 C 11.644531 -11.585938 11.546875 -11.34375 11.421875 -11.125 C 11.003906 -11.125 10.570312 -11.101562 10.125 -11.0625 C 9.6875 -11.019531 9.253906 -10.957031 8.828125 -10.875 C 8.410156 -10.800781 8.015625 -10.71875 7.640625 -10.625 C 7.273438 -10.539062 6.957031 -10.4375 6.6875 -10.3125 Z M 6.6875 -0.03125 "/></g></g></g></svg>